<mxfile host="Electron" modified="2024-05-09T15:43:23.573Z" agent="Mozilla/5.0 (Macintosh; Intel Mac OS X 10_15_7) AppleWebKit/537.36 (KHTML, like Gecko) draw.io/24.2.5 Chrome/120.0.6099.109 Electron/28.1.0 Safari/537.36" etag="vY_fkGZGcnkMNmVvUM62" version="24.2.5" type="device" pages="2">
  <diagram id="8SfQDaL8yJ0VWGiJ6tuN" name="Version 2">
    <mxGraphModel dx="2156" dy="-153" grid="1" gridSize="10" guides="1" tooltips="1" connect="1" arrows="1" fold="1" page="1" pageScale="1" pageWidth="850" pageHeight="1100" math="0" shadow="0">
      <root>
        <mxCell id="0" />
        <mxCell id="1" parent="0" />
        <mxCell id="A4lelQJwvNIMnzoGcwI5-65" value="" style="group;strokeColor=none;strokeWidth=1;" parent="1" vertex="1" connectable="0">
          <mxGeometry x="-770" y="1270" width="750" height="580" as="geometry" />
        </mxCell>
        <mxCell id="A4lelQJwvNIMnzoGcwI5-63" value="" style="rounded=0;whiteSpace=wrap;html=1;fillColor=default;strokeColor=none;" parent="A4lelQJwvNIMnzoGcwI5-65" vertex="1">
          <mxGeometry width="750" height="580" as="geometry" />
        </mxCell>
        <mxCell id="A4lelQJwvNIMnzoGcwI5-62" value="" style="group" parent="A4lelQJwvNIMnzoGcwI5-65" vertex="1" connectable="0">
          <mxGeometry x="10" y="10" width="720" height="560" as="geometry" />
        </mxCell>
        <mxCell id="A4lelQJwvNIMnzoGcwI5-16" value="" style="group" parent="A4lelQJwvNIMnzoGcwI5-62" vertex="1" connectable="0">
          <mxGeometry x="320" width="80" height="80" as="geometry" />
        </mxCell>
        <mxCell id="A4lelQJwvNIMnzoGcwI5-17" value="" style="rounded=0;whiteSpace=wrap;html=1;" parent="A4lelQJwvNIMnzoGcwI5-16" vertex="1">
          <mxGeometry width="80" height="80" as="geometry" />
        </mxCell>
        <mxCell id="A4lelQJwvNIMnzoGcwI5-18" value="&lt;div style=&quot;text-align: left;&quot;&gt;Internet&lt;/div&gt;" style="text;html=1;align=center;verticalAlign=middle;whiteSpace=wrap;rounded=0;container=0;" parent="A4lelQJwvNIMnzoGcwI5-16" vertex="1">
          <mxGeometry width="80" height="80" as="geometry" />
        </mxCell>
        <mxCell id="A4lelQJwvNIMnzoGcwI5-19" value="" style="group" parent="A4lelQJwvNIMnzoGcwI5-62" vertex="1" connectable="0">
          <mxGeometry x="280" y="110" width="160" height="80" as="geometry" />
        </mxCell>
        <mxCell id="A4lelQJwvNIMnzoGcwI5-20" value="" style="rounded=0;whiteSpace=wrap;html=1;container=0;" parent="A4lelQJwvNIMnzoGcwI5-19" vertex="1">
          <mxGeometry width="160" height="80" as="geometry" />
        </mxCell>
        <mxCell id="A4lelQJwvNIMnzoGcwI5-21" value="&lt;div style=&quot;text-align: left;&quot;&gt;&lt;span style=&quot;background-color: initial;&quot;&gt;Modem/IPS&lt;/span&gt;&lt;br&gt;&lt;/div&gt;&lt;div style=&quot;text-align: left;&quot;&gt;&lt;span style=&quot;color: rgb(255, 255, 255); background-color: initial;&quot;&gt;IP: 192.168.100.1&lt;/span&gt;&lt;br&gt;&lt;/div&gt;" style="text;html=1;align=center;verticalAlign=middle;whiteSpace=wrap;rounded=0;container=0;" parent="A4lelQJwvNIMnzoGcwI5-19" vertex="1">
          <mxGeometry x="5" width="150" height="80" as="geometry" />
        </mxCell>
        <mxCell id="A4lelQJwvNIMnzoGcwI5-54" style="edgeStyle=orthogonalEdgeStyle;rounded=0;orthogonalLoop=1;jettySize=auto;html=1;entryX=0.5;entryY=0;entryDx=0;entryDy=0;" parent="A4lelQJwvNIMnzoGcwI5-62" source="A4lelQJwvNIMnzoGcwI5-20" target="A4lelQJwvNIMnzoGcwI5-10" edge="1">
          <mxGeometry relative="1" as="geometry" />
        </mxCell>
        <mxCell id="A4lelQJwvNIMnzoGcwI5-55" style="edgeStyle=orthogonalEdgeStyle;rounded=0;orthogonalLoop=1;jettySize=auto;html=1;" parent="A4lelQJwvNIMnzoGcwI5-62" source="A4lelQJwvNIMnzoGcwI5-20" target="A4lelQJwvNIMnzoGcwI5-49" edge="1">
          <mxGeometry relative="1" as="geometry" />
        </mxCell>
        <mxCell id="A4lelQJwvNIMnzoGcwI5-57" style="edgeStyle=orthogonalEdgeStyle;rounded=0;orthogonalLoop=1;jettySize=auto;html=1;entryX=0.5;entryY=0;entryDx=0;entryDy=0;" parent="A4lelQJwvNIMnzoGcwI5-62" source="A4lelQJwvNIMnzoGcwI5-18" target="A4lelQJwvNIMnzoGcwI5-21" edge="1">
          <mxGeometry relative="1" as="geometry" />
        </mxCell>
        <mxCell id="A4lelQJwvNIMnzoGcwI5-60" value="" style="group" parent="A4lelQJwvNIMnzoGcwI5-62" vertex="1" connectable="0">
          <mxGeometry y="200" width="340" height="360" as="geometry" />
        </mxCell>
        <mxCell id="A4lelQJwvNIMnzoGcwI5-26" value="" style="group" parent="A4lelQJwvNIMnzoGcwI5-60" vertex="1" connectable="0">
          <mxGeometry y="260" width="160" height="100" as="geometry" />
        </mxCell>
        <mxCell id="A4lelQJwvNIMnzoGcwI5-7" value="" style="rounded=0;whiteSpace=wrap;html=1;container=0;" parent="A4lelQJwvNIMnzoGcwI5-26" vertex="1">
          <mxGeometry width="160" height="100" as="geometry" />
        </mxCell>
        <mxCell id="A4lelQJwvNIMnzoGcwI5-8" value="Computer 1&lt;div&gt;OS: Ubuntu Linux&lt;/div&gt;&lt;div&gt;&lt;div&gt;&lt;font color=&quot;#ffffff&quot;&gt;IP: 192.168.1.X&lt;/font&gt;&lt;/div&gt;&lt;/div&gt;" style="text;html=1;align=left;verticalAlign=middle;whiteSpace=wrap;rounded=0;container=0;" parent="A4lelQJwvNIMnzoGcwI5-26" vertex="1">
          <mxGeometry x="20" width="120" height="100" as="geometry" />
        </mxCell>
        <mxCell id="A4lelQJwvNIMnzoGcwI5-27" value="" style="group" parent="A4lelQJwvNIMnzoGcwI5-60" vertex="1" connectable="0">
          <mxGeometry x="180" y="260" width="160" height="100" as="geometry" />
        </mxCell>
        <mxCell id="A4lelQJwvNIMnzoGcwI5-13" value="" style="rounded=0;whiteSpace=wrap;html=1;container=0;" parent="A4lelQJwvNIMnzoGcwI5-27" vertex="1">
          <mxGeometry width="160" height="100" as="geometry" />
        </mxCell>
        <mxCell id="A4lelQJwvNIMnzoGcwI5-14" value="Computer 3&lt;div&gt;OS: FreeBSD&lt;/div&gt;&lt;div&gt;&lt;div&gt;&lt;font color=&quot;#ffffff&quot;&gt;IP: 192.168.1.X&lt;/font&gt;&lt;/div&gt;&lt;/div&gt;" style="text;html=1;align=left;verticalAlign=middle;whiteSpace=wrap;rounded=0;container=0;" parent="A4lelQJwvNIMnzoGcwI5-27" vertex="1">
          <mxGeometry x="20" width="120" height="100" as="geometry" />
        </mxCell>
        <mxCell id="A4lelQJwvNIMnzoGcwI5-28" value="" style="group" parent="A4lelQJwvNIMnzoGcwI5-60" vertex="1" connectable="0">
          <mxGeometry x="90" y="140" width="160" height="100" as="geometry" />
        </mxCell>
        <mxCell id="A4lelQJwvNIMnzoGcwI5-11" value="" style="rounded=0;whiteSpace=wrap;html=1;container=0;" parent="A4lelQJwvNIMnzoGcwI5-28" vertex="1">
          <mxGeometry width="160" height="100" as="geometry" />
        </mxCell>
        <mxCell id="A4lelQJwvNIMnzoGcwI5-12" value="Computer 2&lt;div&gt;OS: Ubuntu Linux&lt;/div&gt;&lt;div&gt;&lt;div&gt;&lt;font color=&quot;#ffffff&quot;&gt;IP: 192.168.1.X&lt;/font&gt;&lt;/div&gt;&lt;/div&gt;&lt;div&gt;&lt;span style=&quot;color: rgb(255, 0, 0);&quot;&gt;COMPROMISED&lt;/span&gt;&lt;font color=&quot;#ffffff&quot;&gt;&lt;br&gt;&lt;/font&gt;&lt;/div&gt;" style="text;html=1;align=left;verticalAlign=middle;whiteSpace=wrap;rounded=0;container=0;" parent="A4lelQJwvNIMnzoGcwI5-28" vertex="1">
          <mxGeometry x="20" width="120" height="100" as="geometry" />
        </mxCell>
        <mxCell id="A4lelQJwvNIMnzoGcwI5-29" value="" style="group" parent="A4lelQJwvNIMnzoGcwI5-60" vertex="1" connectable="0">
          <mxGeometry x="90" width="160" height="100" as="geometry" />
        </mxCell>
        <mxCell id="A4lelQJwvNIMnzoGcwI5-9" value="" style="rounded=0;whiteSpace=wrap;html=1;container=0;" parent="A4lelQJwvNIMnzoGcwI5-29" vertex="1">
          <mxGeometry width="160" height="100" as="geometry" />
        </mxCell>
        <mxCell id="A4lelQJwvNIMnzoGcwI5-10" value="&lt;div style=&quot;text-align: left;&quot;&gt;&lt;font color=&quot;#33ff33&quot;&gt;WE ARE HERE&lt;/font&gt;&lt;/div&gt;&lt;div style=&quot;text-align: left;&quot;&gt;Router/OPNSense&lt;/div&gt;&lt;div style=&quot;text-align: left;&quot;&gt;OS: FreeBSD&lt;/div&gt;&lt;div style=&quot;text-align: left;&quot;&gt;Subnet: 192.168.1.0/24&lt;/div&gt;&lt;div style=&quot;text-align: left;&quot;&gt;&lt;font color=&quot;#ffffff&quot;&gt;IP: 192.168.1.1&lt;/font&gt;&lt;/div&gt;" style="text;html=1;align=center;verticalAlign=middle;whiteSpace=wrap;rounded=0;container=0;" parent="A4lelQJwvNIMnzoGcwI5-29" vertex="1">
          <mxGeometry x="10" width="140" height="100" as="geometry" />
        </mxCell>
        <mxCell id="A4lelQJwvNIMnzoGcwI5-34" style="edgeStyle=orthogonalEdgeStyle;rounded=0;orthogonalLoop=1;jettySize=auto;html=1;" parent="A4lelQJwvNIMnzoGcwI5-60" source="A4lelQJwvNIMnzoGcwI5-9" target="A4lelQJwvNIMnzoGcwI5-8" edge="1">
          <mxGeometry relative="1" as="geometry">
            <Array as="points">
              <mxPoint x="50" y="50" />
            </Array>
          </mxGeometry>
        </mxCell>
        <mxCell id="A4lelQJwvNIMnzoGcwI5-35" style="edgeStyle=orthogonalEdgeStyle;rounded=0;orthogonalLoop=1;jettySize=auto;html=1;" parent="A4lelQJwvNIMnzoGcwI5-60" source="A4lelQJwvNIMnzoGcwI5-9" target="A4lelQJwvNIMnzoGcwI5-14" edge="1">
          <mxGeometry relative="1" as="geometry">
            <Array as="points">
              <mxPoint x="290" y="50" />
            </Array>
          </mxGeometry>
        </mxCell>
        <mxCell id="A4lelQJwvNIMnzoGcwI5-36" style="edgeStyle=orthogonalEdgeStyle;rounded=0;orthogonalLoop=1;jettySize=auto;html=1;entryX=0.5;entryY=0;entryDx=0;entryDy=0;" parent="A4lelQJwvNIMnzoGcwI5-60" source="A4lelQJwvNIMnzoGcwI5-10" target="A4lelQJwvNIMnzoGcwI5-12" edge="1">
          <mxGeometry relative="1" as="geometry" />
        </mxCell>
        <mxCell id="A4lelQJwvNIMnzoGcwI5-61" value="" style="group" parent="A4lelQJwvNIMnzoGcwI5-62" vertex="1" connectable="0">
          <mxGeometry x="380" y="200" width="340" height="360" as="geometry" />
        </mxCell>
        <mxCell id="A4lelQJwvNIMnzoGcwI5-38" value="" style="group" parent="A4lelQJwvNIMnzoGcwI5-61" vertex="1" connectable="0">
          <mxGeometry y="260" width="160" height="100" as="geometry" />
        </mxCell>
        <mxCell id="A4lelQJwvNIMnzoGcwI5-39" value="" style="rounded=0;whiteSpace=wrap;html=1;container=0;" parent="A4lelQJwvNIMnzoGcwI5-38" vertex="1">
          <mxGeometry width="160" height="100" as="geometry" />
        </mxCell>
        <mxCell id="A4lelQJwvNIMnzoGcwI5-40" value="Computer 1&lt;div&gt;OS: Ubuntu Linux&lt;/div&gt;&lt;div&gt;&lt;div&gt;&lt;font color=&quot;#ffffff&quot;&gt;IP: 192.168.2.X&lt;/font&gt;&lt;/div&gt;&lt;/div&gt;" style="text;html=1;align=left;verticalAlign=middle;whiteSpace=wrap;rounded=0;container=0;" parent="A4lelQJwvNIMnzoGcwI5-38" vertex="1">
          <mxGeometry x="20" width="120" height="100" as="geometry" />
        </mxCell>
        <mxCell id="A4lelQJwvNIMnzoGcwI5-41" value="" style="group" parent="A4lelQJwvNIMnzoGcwI5-61" vertex="1" connectable="0">
          <mxGeometry x="180" y="260" width="160" height="100" as="geometry" />
        </mxCell>
        <mxCell id="A4lelQJwvNIMnzoGcwI5-42" value="" style="rounded=0;whiteSpace=wrap;html=1;container=0;" parent="A4lelQJwvNIMnzoGcwI5-41" vertex="1">
          <mxGeometry width="160" height="100" as="geometry" />
        </mxCell>
        <mxCell id="A4lelQJwvNIMnzoGcwI5-43" value="Computer 3&lt;div&gt;OS: FreeBSD&lt;/div&gt;&lt;div&gt;&lt;div&gt;&lt;font color=&quot;#ffffff&quot;&gt;IP: 192.168.2.X&lt;/font&gt;&lt;/div&gt;&lt;/div&gt;" style="text;html=1;align=left;verticalAlign=middle;whiteSpace=wrap;rounded=0;container=0;" parent="A4lelQJwvNIMnzoGcwI5-41" vertex="1">
          <mxGeometry x="20" width="120" height="100" as="geometry" />
        </mxCell>
        <mxCell id="A4lelQJwvNIMnzoGcwI5-44" value="" style="group" parent="A4lelQJwvNIMnzoGcwI5-61" vertex="1" connectable="0">
          <mxGeometry x="90" y="140" width="160" height="100" as="geometry" />
        </mxCell>
        <mxCell id="A4lelQJwvNIMnzoGcwI5-45" value="" style="rounded=0;whiteSpace=wrap;html=1;container=0;" parent="A4lelQJwvNIMnzoGcwI5-44" vertex="1">
          <mxGeometry width="160" height="100" as="geometry" />
        </mxCell>
        <mxCell id="A4lelQJwvNIMnzoGcwI5-46" value="Computer 2&lt;div&gt;OS: Ubuntu Linux&lt;/div&gt;&lt;div&gt;&lt;div&gt;&lt;font color=&quot;#ffffff&quot;&gt;IP: 192.168.2.X&lt;/font&gt;&lt;/div&gt;&lt;/div&gt;" style="text;html=1;align=left;verticalAlign=middle;whiteSpace=wrap;rounded=0;container=0;" parent="A4lelQJwvNIMnzoGcwI5-44" vertex="1">
          <mxGeometry x="20" width="120" height="100" as="geometry" />
        </mxCell>
        <mxCell id="A4lelQJwvNIMnzoGcwI5-47" value="" style="group" parent="A4lelQJwvNIMnzoGcwI5-61" vertex="1" connectable="0">
          <mxGeometry x="90" width="160" height="100" as="geometry" />
        </mxCell>
        <mxCell id="A4lelQJwvNIMnzoGcwI5-48" value="" style="rounded=0;whiteSpace=wrap;html=1;container=0;" parent="A4lelQJwvNIMnzoGcwI5-47" vertex="1">
          <mxGeometry width="160" height="100" as="geometry" />
        </mxCell>
        <mxCell id="A4lelQJwvNIMnzoGcwI5-49" value="&lt;div style=&quot;text-align: left;&quot;&gt;&lt;br&gt;&lt;/div&gt;&lt;div style=&quot;text-align: left;&quot;&gt;Router/OPNSense&lt;/div&gt;&lt;div style=&quot;text-align: left;&quot;&gt;OS: FreeBSD&lt;/div&gt;&lt;div style=&quot;text-align: left;&quot;&gt;Subnet: 192.168.2.0/24&lt;/div&gt;&lt;div style=&quot;text-align: left;&quot;&gt;&lt;font color=&quot;#ffffff&quot;&gt;IP: 192.168.2.1&lt;/font&gt;&lt;/div&gt;" style="text;html=1;align=center;verticalAlign=middle;whiteSpace=wrap;rounded=0;container=0;" parent="A4lelQJwvNIMnzoGcwI5-47" vertex="1">
          <mxGeometry x="10" width="140" height="100" as="geometry" />
        </mxCell>
        <mxCell id="A4lelQJwvNIMnzoGcwI5-52" style="edgeStyle=orthogonalEdgeStyle;rounded=0;orthogonalLoop=1;jettySize=auto;html=1;entryX=0.5;entryY=0;entryDx=0;entryDy=0;" parent="A4lelQJwvNIMnzoGcwI5-61" source="A4lelQJwvNIMnzoGcwI5-49" target="A4lelQJwvNIMnzoGcwI5-46" edge="1">
          <mxGeometry relative="1" as="geometry" />
        </mxCell>
        <mxCell id="A4lelQJwvNIMnzoGcwI5-58" style="edgeStyle=orthogonalEdgeStyle;rounded=0;orthogonalLoop=1;jettySize=auto;html=1;entryX=0.25;entryY=0;entryDx=0;entryDy=0;" parent="A4lelQJwvNIMnzoGcwI5-61" source="A4lelQJwvNIMnzoGcwI5-48" target="A4lelQJwvNIMnzoGcwI5-40" edge="1">
          <mxGeometry relative="1" as="geometry">
            <Array as="points">
              <mxPoint x="50" y="60" />
            </Array>
          </mxGeometry>
        </mxCell>
        <mxCell id="A4lelQJwvNIMnzoGcwI5-59" style="edgeStyle=orthogonalEdgeStyle;rounded=0;orthogonalLoop=1;jettySize=auto;html=1;entryX=0.75;entryY=0;entryDx=0;entryDy=0;" parent="A4lelQJwvNIMnzoGcwI5-61" source="A4lelQJwvNIMnzoGcwI5-48" target="A4lelQJwvNIMnzoGcwI5-43" edge="1">
          <mxGeometry relative="1" as="geometry">
            <Array as="points">
              <mxPoint x="290" y="60" />
            </Array>
          </mxGeometry>
        </mxCell>
      </root>
    </mxGraphModel>
  </diagram>
  <diagram name="Version 1" id="wc0vTxO_sVqjLhbFtvPq">
    <mxGraphModel dx="2156" dy="947" grid="1" gridSize="10" guides="1" tooltips="1" connect="1" arrows="1" fold="1" page="1" pageScale="1" pageWidth="850" pageHeight="1100" math="0" shadow="0">
      <root>
        <mxCell id="0" />
        <mxCell id="1" parent="0" />
        <mxCell id="o5J6GBUeD3QkUXqTrO9f-64" value="" style="rounded=0;whiteSpace=wrap;html=1;" parent="1" vertex="1">
          <mxGeometry x="-700" y="1100" width="520" height="500" as="geometry" />
        </mxCell>
        <mxCell id="o5J6GBUeD3QkUXqTrO9f-48" value="" style="group" parent="1" vertex="1" connectable="0">
          <mxGeometry x="-680" y="1200" width="480" height="380" as="geometry" />
        </mxCell>
        <mxCell id="o5J6GBUeD3QkUXqTrO9f-41" value="" style="rounded=0;whiteSpace=wrap;html=1;container=0;" parent="o5J6GBUeD3QkUXqTrO9f-48" vertex="1">
          <mxGeometry width="480" height="380" as="geometry" />
        </mxCell>
        <mxCell id="o5J6GBUeD3QkUXqTrO9f-43" style="edgeStyle=orthogonalEdgeStyle;rounded=0;orthogonalLoop=1;jettySize=auto;html=1;exitX=0;exitY=0.5;exitDx=0;exitDy=0;entryX=1;entryY=0.5;entryDx=0;entryDy=0;" parent="o5J6GBUeD3QkUXqTrO9f-48" source="o5J6GBUeD3QkUXqTrO9f-29" target="o5J6GBUeD3QkUXqTrO9f-33" edge="1">
          <mxGeometry relative="1" as="geometry" />
        </mxCell>
        <mxCell id="o5J6GBUeD3QkUXqTrO9f-44" style="rounded=0;orthogonalLoop=1;jettySize=auto;html=1;exitX=0;exitY=0;exitDx=0;exitDy=0;entryX=1;entryY=1;entryDx=0;entryDy=0;" parent="o5J6GBUeD3QkUXqTrO9f-48" source="o5J6GBUeD3QkUXqTrO9f-39" target="o5J6GBUeD3QkUXqTrO9f-33" edge="1">
          <mxGeometry relative="1" as="geometry" />
        </mxCell>
        <mxCell id="o5J6GBUeD3QkUXqTrO9f-45" style="edgeStyle=orthogonalEdgeStyle;rounded=0;orthogonalLoop=1;jettySize=auto;html=1;entryX=0.5;entryY=1;entryDx=0;entryDy=0;" parent="o5J6GBUeD3QkUXqTrO9f-48" source="o5J6GBUeD3QkUXqTrO9f-36" target="o5J6GBUeD3QkUXqTrO9f-33" edge="1">
          <mxGeometry relative="1" as="geometry" />
        </mxCell>
        <mxCell id="o5J6GBUeD3QkUXqTrO9f-29" value="" style="rounded=0;whiteSpace=wrap;html=1;container=0;" parent="o5J6GBUeD3QkUXqTrO9f-48" vertex="1">
          <mxGeometry x="280" y="80" width="160" height="100" as="geometry" />
        </mxCell>
        <mxCell id="o5J6GBUeD3QkUXqTrO9f-30" value="Computer 1&lt;div&gt;OS: Ubuntu Linux&lt;/div&gt;&lt;div&gt;&lt;div&gt;&lt;font color=&quot;#ffffff&quot;&gt;IP: 192.168.1.X&lt;/font&gt;&lt;/div&gt;&lt;/div&gt;" style="text;html=1;align=left;verticalAlign=middle;whiteSpace=wrap;rounded=0;container=0;" parent="o5J6GBUeD3QkUXqTrO9f-48" vertex="1">
          <mxGeometry x="300" y="80" width="120" height="100" as="geometry" />
        </mxCell>
        <mxCell id="o5J6GBUeD3QkUXqTrO9f-33" value="" style="rounded=0;whiteSpace=wrap;html=1;container=0;" parent="o5J6GBUeD3QkUXqTrO9f-48" vertex="1">
          <mxGeometry x="40" y="80" width="160" height="100" as="geometry" />
        </mxCell>
        <mxCell id="o5J6GBUeD3QkUXqTrO9f-34" value="&lt;div style=&quot;text-align: left;&quot;&gt;&lt;br&gt;&lt;/div&gt;&lt;div style=&quot;text-align: left;&quot;&gt;Router/OPNSense&lt;/div&gt;&lt;div style=&quot;text-align: left;&quot;&gt;OS: FreeBSD&lt;/div&gt;&lt;div style=&quot;text-align: left;&quot;&gt;&lt;font color=&quot;#ffffff&quot;&gt;IP: 192.168.1.1&lt;/font&gt;&lt;/div&gt;" style="text;html=1;align=center;verticalAlign=middle;whiteSpace=wrap;rounded=0;container=0;" parent="o5J6GBUeD3QkUXqTrO9f-48" vertex="1">
          <mxGeometry x="60" y="80" width="120" height="100" as="geometry" />
        </mxCell>
        <mxCell id="o5J6GBUeD3QkUXqTrO9f-36" value="" style="rounded=0;whiteSpace=wrap;html=1;container=0;" parent="o5J6GBUeD3QkUXqTrO9f-48" vertex="1">
          <mxGeometry x="40" y="240" width="160" height="100" as="geometry" />
        </mxCell>
        <mxCell id="o5J6GBUeD3QkUXqTrO9f-37" value="Computer 2&lt;div&gt;OS: Ubuntu Linux&lt;/div&gt;&lt;div&gt;&lt;div&gt;&lt;font color=&quot;#ffffff&quot;&gt;IP: 192.168.1.X&lt;/font&gt;&lt;/div&gt;&lt;/div&gt;&lt;div&gt;&lt;span style=&quot;color: rgb(255, 0, 0);&quot;&gt;COMPROMISED&lt;/span&gt;&lt;font color=&quot;#ffffff&quot;&gt;&lt;br&gt;&lt;/font&gt;&lt;/div&gt;" style="text;html=1;align=left;verticalAlign=middle;whiteSpace=wrap;rounded=0;container=0;" parent="o5J6GBUeD3QkUXqTrO9f-48" vertex="1">
          <mxGeometry x="60" y="240" width="120" height="100" as="geometry" />
        </mxCell>
        <mxCell id="o5J6GBUeD3QkUXqTrO9f-39" value="" style="rounded=0;whiteSpace=wrap;html=1;container=0;" parent="o5J6GBUeD3QkUXqTrO9f-48" vertex="1">
          <mxGeometry x="280" y="240" width="160" height="100" as="geometry" />
        </mxCell>
        <mxCell id="o5J6GBUeD3QkUXqTrO9f-40" value="Computer 3&lt;div&gt;OS: FreeBSD&lt;/div&gt;&lt;div&gt;&lt;div&gt;&lt;font color=&quot;#ffffff&quot;&gt;IP: 192.168.1.X&lt;/font&gt;&lt;/div&gt;&lt;/div&gt;" style="text;html=1;align=left;verticalAlign=middle;whiteSpace=wrap;rounded=0;container=0;" parent="o5J6GBUeD3QkUXqTrO9f-48" vertex="1">
          <mxGeometry x="300" y="240" width="120" height="100" as="geometry" />
        </mxCell>
        <mxCell id="o5J6GBUeD3QkUXqTrO9f-49" value="&lt;div style=&quot;&quot;&gt;&lt;font color=&quot;#00ff00&quot;&gt;WE ARE HERE&lt;/font&gt;&lt;/div&gt;&lt;div style=&quot;&quot;&gt;Subnet: 192.168.1.0/24&lt;/div&gt;" style="text;html=1;align=center;verticalAlign=middle;whiteSpace=wrap;rounded=0;container=0;" parent="o5J6GBUeD3QkUXqTrO9f-48" vertex="1">
          <mxGeometry x="175" width="130" height="80" as="geometry" />
        </mxCell>
        <mxCell id="o5J6GBUeD3QkUXqTrO9f-72" value="" style="group" parent="1" vertex="1" connectable="0">
          <mxGeometry x="-490" y="1010" width="80" height="80" as="geometry" />
        </mxCell>
        <mxCell id="o5J6GBUeD3QkUXqTrO9f-69" value="" style="rounded=0;whiteSpace=wrap;html=1;" parent="o5J6GBUeD3QkUXqTrO9f-72" vertex="1">
          <mxGeometry width="80" height="80" as="geometry" />
        </mxCell>
        <mxCell id="o5J6GBUeD3QkUXqTrO9f-70" value="&lt;div style=&quot;text-align: left;&quot;&gt;Internet&lt;/div&gt;" style="text;html=1;align=center;verticalAlign=middle;whiteSpace=wrap;rounded=0;container=0;" parent="o5J6GBUeD3QkUXqTrO9f-72" vertex="1">
          <mxGeometry width="80" height="80" as="geometry" />
        </mxCell>
        <mxCell id="o5J6GBUeD3QkUXqTrO9f-77" value="" style="group" parent="1" vertex="1" connectable="0">
          <mxGeometry x="-680" y="1120" width="160" height="60" as="geometry" />
        </mxCell>
        <mxCell id="o5J6GBUeD3QkUXqTrO9f-66" value="" style="rounded=0;whiteSpace=wrap;html=1;container=0;" parent="o5J6GBUeD3QkUXqTrO9f-77" vertex="1">
          <mxGeometry width="160" height="60" as="geometry" />
        </mxCell>
        <mxCell id="o5J6GBUeD3QkUXqTrO9f-67" value="&lt;div style=&quot;text-align: left;&quot;&gt;&lt;span style=&quot;background-color: initial;&quot;&gt;Modem/IPS&lt;/span&gt;&lt;br&gt;&lt;/div&gt;&lt;div style=&quot;text-align: left;&quot;&gt;&lt;font color=&quot;#ffffff&quot;&gt;IP: 192.168.100.1&lt;/font&gt;&lt;/div&gt;" style="text;html=1;align=center;verticalAlign=middle;whiteSpace=wrap;rounded=0;container=0;" parent="o5J6GBUeD3QkUXqTrO9f-77" vertex="1">
          <mxGeometry x="20" width="120" height="60" as="geometry" />
        </mxCell>
        <mxCell id="o5J6GBUeD3QkUXqTrO9f-79" style="edgeStyle=orthogonalEdgeStyle;rounded=0;orthogonalLoop=1;jettySize=auto;html=1;entryX=0.5;entryY=1;entryDx=0;entryDy=0;" parent="1" source="o5J6GBUeD3QkUXqTrO9f-34" target="o5J6GBUeD3QkUXqTrO9f-67" edge="1">
          <mxGeometry relative="1" as="geometry" />
        </mxCell>
        <mxCell id="o5J6GBUeD3QkUXqTrO9f-78" style="edgeStyle=orthogonalEdgeStyle;rounded=0;orthogonalLoop=1;jettySize=auto;html=1;exitX=0.5;exitY=0;exitDx=0;exitDy=0;entryX=0;entryY=0.5;entryDx=0;entryDy=0;" parent="1" source="o5J6GBUeD3QkUXqTrO9f-67" target="o5J6GBUeD3QkUXqTrO9f-70" edge="1">
          <mxGeometry relative="1" as="geometry">
            <mxPoint x="-559.6666666666665" y="1059.9999999999998" as="targetPoint" />
          </mxGeometry>
        </mxCell>
        <mxCell id="o5J6GBUeD3QkUXqTrO9f-94" value="&lt;div style=&quot;&quot;&gt;&lt;span style=&quot;background-color: initial;&quot;&gt;Subnet: 192.168.100.0/16&lt;/span&gt;&lt;br&gt;&lt;/div&gt;" style="text;html=1;align=center;verticalAlign=middle;whiteSpace=wrap;rounded=0;container=0;" parent="1" vertex="1">
          <mxGeometry x="-505" y="1110" width="130" height="80" as="geometry" />
        </mxCell>
      </root>
    </mxGraphModel>
  </diagram>
</mxfile>
